<svg viewBox="0 0 1000 1000"><defs><clipPath id="g"><rect width="1e3" height="1e3"/></clipPath></defs><g clip-path="url(#g)"><rect width="1e3" height="1e3" fill="#e5e5e5"/><clipPath id="h"><rect width="1e3" height="1e3" fill="#fff"/></clipPath><g clip-path="url(#h)"><rect width="1e4" height="1e4" fill="#5ac47e"/><path d="m730.33 839.58l-0.061 0.105-324.76-187.5c-59.787-34.517-80.271-110.97-45.753-170.75-59.787-34.518-80.271-110.97-45.754-170.75-59.786-34.518-80.271-110.97-45.753-170.75l108.25 62.5 216.51 125c179.32 103.53 240.79 332.81 137.32 512.15z" fill="#fff" fill-rule="evenodd"/><linearGradient id="f" x1=".5" x2=".5" y2="1" gradientTransform="matrix(375.01 -.005 .002 125 211.89 225.31)" gradientUnits="userSpaceOnUse"><stop stop-color="#ecd613" stop-opacity=".66" offset="0"/><stop stop-color="#f4df22" stop-opacity="0" offset="1"/></linearGradient><rect transform="matrix(.866 .5 -.5 .866 197.41 -161.13)" x="211.88" y="225.3" width="375" height="125" fill="url(#f)"/><linearGradient id="e" x1=".5" x2=".5" y2="1" gradientTransform="matrix(375.01 -.005 .002 125 257.65 396.06)" gradientUnits="userSpaceOnUse"><stop stop-color="#ecd613" stop-opacity=".66" offset="0"/><stop stop-color="#f4df22" stop-opacity="0" offset="1"/></linearGradient><rect transform="matrix(.866 .5 -.5 .866 288.92 -161.13)" x="257.64" y="396.06" width="375" height="125" fill="url(#e)"/><linearGradient id="d" x1=".48109" x2=".5" y1=".31417" y2="1" gradientTransform="matrix(125 -.002 .002 125 490.91 458.56)" gradientUnits="userSpaceOnUse"><stop stop-color="#fff" offset="0"/><stop stop-color="#fff" stop-opacity="0" offset="1"/></linearGradient><rect transform="matrix(-.5 .866 -.866 -.5 1281.3 302.34)" x="490.89" y="458.56" width="125" height="125" fill="url(#d)"/><linearGradient id="c" x1=".5" x2=".5" y2="1" gradientTransform="matrix(375.01 -.005 .002 125 303.4 566.82)" gradientUnits="userSpaceOnUse"><stop stop-color="#ecd613" stop-opacity=".66" offset="0"/><stop stop-color="#f4df22" stop-opacity="0" offset="1"/></linearGradient><rect transform="matrix(.866 .5 -.5 .866 380.42 -161.13)" x="303.39" y="566.81" width="375" height="125" fill="url(#c)"/><linearGradient id="b" x1=".50372" x2=".49995" y1=".32246" y2=".99574" gradientTransform="matrix(125 -.002 .002 125 536.66 629.32)" gradientUnits="userSpaceOnUse"><stop stop-color="#fff" offset=".0043478"/><stop stop-color="#fff" stop-opacity="0" offset=".98696"/></linearGradient><rect transform="matrix(-.5 .866 -.866 -.5 1497.8 518.84)" x="536.64" y="629.31" width="125" height="125" fill="url(#b)"/><path d="m1082.3 480l-866.03-500-306.25 530.44 866.02 500 306.26-530.44zm-352.01 359.69l0.061-0.105c103.47-179.34 42.004-408.62-137.32-512.15l-216.51-125-108.25-62.5c-34.518 59.786-14.033 136.24 45.753 170.75-34.517 59.787-14.033 136.24 45.754 170.75-34.518 59.787-14.034 136.24 45.753 170.75l324.76 187.5z" fill="#5ac47e" fill-rule="evenodd"/><radialGradient id="a" cx="0" cy=".63397" r="1" gradientTransform="matrix(362.3 172.81 0 512.26 405.51 327.43)" gradientUnits="userSpaceOnUse"><stop stop-color="#f4df22" stop-opacity="0" offset=".66298"/><stop stop-color="#ecd613" stop-opacity=".66" offset=".97826"/></radialGradient><path d="m730.33 839.58l-0.061 0.105-324.76-187.5 187.5-324.76c179.32 103.53 240.79 332.81 137.32 512.15z" fill="url(#a)" fill-rule="evenodd"/></g></g></svg>
