<?xml version="1.0" standalone="no"?><!-- Generator: Gravit.io --><svg xmlns="http://www.w3.org/2000/svg" xmlns:xlink="http://www.w3.org/1999/xlink" style="isolation:isolate" viewBox="0 0 1000 1000" width="1000" height="1000"><defs><clipPath id="_clipPath_c9gAG46YMAbf1Hl4omvzUgDnDt9EZMjG"><rect width="1000" height="1000"/></clipPath></defs><g clip-path="url(#_clipPath_c9gAG46YMAbf1Hl4omvzUgDnDt9EZMjG)"><rect x="0" y="0" width="1000" height="1000" transform="matrix(1,0,0,1,0,0)" fill="rgb(229,229,229)"/><clipPath id="_clipPath_F7YUlphzPNiNCY8AOr5spknrqoRGMxnq"><rect x="0" y="0" width="1000" height="1000" transform="matrix(1,0,0,1,0,0)" fill="rgb(255,255,255)"/></clipPath><g clip-path="url(#_clipPath_F7YUlphzPNiNCY8AOr5spknrqoRGMxnq)"><g><rect x="0" y="0" width="10000" height="10000" transform="matrix(1,0,0,1,0,0)" fill="rgb(90,196,126)"/><path d=" M 730.333 839.582 L 730.272 839.687 L 405.513 652.187 C 345.726 617.67 325.242 541.221 359.76 481.434 C 299.973 446.916 279.489 370.468 314.006 310.681 C 254.22 276.163 233.735 199.714 268.253 139.928 L 376.506 202.428 L 593.013 327.428 C 772.337 430.961 833.801 660.238 730.333 839.582 Z " fill-rule="evenodd" fill="rgb(255,255,255)"/><linearGradient id="_lgradient_5" x1="0.4999999999999999" y1="0" x2="0.4999999999999997" y2="0.9999999999999996" gradientTransform="matrix(375.008,-0.005,0.002,125.003,211.891,225.307)" gradientUnits="userSpaceOnUse"><stop offset="0%" stop-opacity="0.66" style="stop-color:rgb(236,214,19)"/><stop offset="100%" stop-opacity="0" style="stop-color:rgb(244,223,34)"/></linearGradient><rect x="211.883" y="225.305" width="375" height="125" transform="matrix(0.866,0.5,-0.5,0.866,197.409,-161.133)" fill="url(#_lgradient_5)"/><linearGradient id="_lgradient_6" x1="0.4999999999999999" y1="0" x2="0.4999999999999997" y2="1" gradientTransform="matrix(375.008,-0.005,0.002,125.003,257.646,396.063)" gradientUnits="userSpaceOnUse"><stop offset="0%" stop-opacity="0.66" style="stop-color:rgb(236,214,19)"/><stop offset="100%" stop-opacity="0" style="stop-color:rgb(244,223,34)"/></linearGradient><rect x="257.636" y="396.058" width="375" height="125" transform="matrix(0.866,0.5,-0.5,0.866,288.916,-161.133)" fill="url(#_lgradient_6)"/><linearGradient id="_lgradient_7" x1="0.4810926256030595" y1="0.3141728706912099" x2="0.49999999999999994" y2="0.9999999999999996" gradientTransform="matrix(125.003,-0.002,0.002,125.003,490.906,458.561)" gradientUnits="userSpaceOnUse"><stop offset="0%" stop-opacity="1" style="stop-color:rgb(255,255,255)"/><stop offset="100%" stop-opacity="0" style="stop-color:rgb(255,255,255)"/></linearGradient><rect x="490.889" y="458.558" width="125" height="125" transform="matrix(-0.5,0.866,-0.866,-0.5,1281.333,302.337)" fill="url(#_lgradient_7)"/><linearGradient id="_lgradient_8" x1="0.5" y1="0" x2="0.49999999999999983" y2="1" gradientTransform="matrix(375.008,-0.005,0.002,125.003,303.404,566.819)" gradientUnits="userSpaceOnUse"><stop offset="0%" stop-opacity="0.66" style="stop-color:rgb(236,214,19)"/><stop offset="100%" stop-opacity="0" style="stop-color:rgb(244,223,34)"/></linearGradient><rect x="303.39" y="566.811" width="375" height="125" transform="matrix(0.866,0.5,-0.5,0.866,380.422,-161.133)" fill="url(#_lgradient_8)"/><linearGradient id="_lgradient_9" x1="0.503724604596112" y1="0.32246491297082236" x2="0.4999507761507125" y2="0.9957383491677865" gradientTransform="matrix(125.003,-0.002,0.002,125.003,536.662,629.317)" gradientUnits="userSpaceOnUse"><stop offset="0.43478260869565216%" stop-opacity="1" style="stop-color:rgb(255,255,255)"/><stop offset="98.69565217391305%" stop-opacity="0" style="stop-color:rgb(255,255,255)"/></linearGradient><rect x="536.642" y="629.311" width="125" height="125" transform="matrix(-0.5,0.866,-0.866,-0.5,1497.839,518.843)" fill="url(#_lgradient_9)"/><path d=" M 1082.28 480 L 216.25 -20 L -90 510.441 L 776.025 1010.44 L 1082.28 480 Z  M 730.272 839.687 L 730.333 839.582 C 833.801 660.238 772.337 430.961 593.013 327.428 L 376.506 202.428 L 268.253 139.928 C 233.735 199.714 254.22 276.163 314.006 310.681 C 279.489 370.468 299.973 446.916 359.76 481.434 C 325.242 541.221 345.726 617.67 405.513 652.187 L 730.272 839.687 Z " fill-rule="evenodd" fill="rgb(90,196,126)"/><radialGradient id="_rgradient_1" fx="0" fy="0.6339742200722681" cx="0" cy="0.6339742200722681" r="1" gradientTransform="matrix(362.3,172.813,0,512.259,405.513,327.428)" gradientUnits="userSpaceOnUse"><stop offset="66.2983%" stop-opacity="0" style="stop-color:rgb(244,223,34)"/><stop offset="97.82608695652173%" stop-opacity="0.66" style="stop-color:rgb(236,214,19)"/></radialGradient><path d=" M 730.333 839.582 L 730.272 839.687 L 405.513 652.187 L 593.013 327.428 C 772.337 430.961 833.801 660.238 730.333 839.582 Z " fill-rule="evenodd" fill="url(#_rgradient_1)"/></g></g></g></svg>