<svg width="100" height="100" viewBox="0 0 100 100" fill="none" xmlns="http://www.w3.org/2000/svg">
<rect width="100" height="100" fill="#E5E5E5"/>
<g clip-path="url(#clip0)">
<rect width="100" height="100" fill="#5AC47E"/>
<path fill-rule="evenodd" clip-rule="evenodd" d="M73.0333 83.9582L73.0272 83.9687L40.5513 65.2187C34.5726 61.767 32.5242 54.1221 35.976 48.1434C29.9973 44.6916 27.9489 37.0468 31.4006 31.0681C25.422 27.6163 23.3735 19.9714 26.8253 13.9928L37.6506 20.2428L59.3013 32.7428C77.2337 43.0961 83.3801 66.0238 73.0333 83.9582Z" fill="white"/>
<path fill-rule="evenodd" clip-rule="evenodd" d="M73.0333 83.9582L73.0272 83.9687L40.5513 65.2187L59.3013 32.7428C77.2337 43.0961 83.3801 66.0238 73.0333 83.9582Z" fill="url(#paint0_radial)"/>
<rect x="26.8253" y="13.9928" width="37.5" height="12.5" transform="rotate(30 26.8253 13.9928)" fill="url(#paint1_linear)"/>
<rect x="31.4006" y="31.0681" width="37.5" height="12.5" transform="rotate(30 31.4006 31.0681)" fill="url(#paint2_linear)"/>
<rect x="63.8766" y="49.8181" width="12.5" height="12.5" transform="rotate(120 63.8766 49.8181)" fill="url(#paint3_linear)"/>
<rect x="35.976" y="48.1434" width="37.5" height="12.5" transform="rotate(30 35.976 48.1434)" fill="url(#paint4_linear)"/>
<rect x="68.4519" y="66.8934" width="12.5" height="12.5" transform="rotate(120 68.4519 66.8934)" fill="url(#paint5_linear)"/>
<path fill-rule="evenodd" clip-rule="evenodd" d="M108.228 48L21.625 -2L-9 51.0441L77.6025 101.044L108.228 48ZM73.0272 83.9687L73.0333 83.9582C83.3801 66.0238 77.2337 43.0961 59.3013 32.7428L37.6506 20.2428L26.8253 13.9928C23.3735 19.9714 25.422 27.6163 31.4006 31.0681C27.9489 37.0468 29.9973 44.6916 35.976 48.1434C32.5242 54.1221 34.5726 61.767 40.5513 65.2187L73.0272 83.9687Z" fill="#5AC47E"/>
</g>
<defs>
<radialGradient id="paint0_radial" cx="0" cy="0" r="1" gradientUnits="userSpaceOnUse" gradientTransform="translate(40.5513 65.2187) rotate(-60) scale(37.5)">
<stop offset="0.662983" stop-color="#F4DF22" stop-opacity="0"/>
<stop offset="1" stop-color="#ECD613" stop-opacity="0.28"/>
</radialGradient>
<linearGradient id="paint1_linear" x1="45.5753" y1="13.9928" x2="45.5753" y2="26.4928" gradientUnits="userSpaceOnUse">
<stop stop-color="#ECD613" stop-opacity="0.28"/>
<stop offset="1" stop-color="#F4DF22" stop-opacity="0"/>
</linearGradient>
<linearGradient id="paint2_linear" x1="50.1506" y1="31.0681" x2="50.1506" y2="43.5681" gradientUnits="userSpaceOnUse">
<stop stop-color="#ECD613" stop-opacity="0.28"/>
<stop offset="1" stop-color="#F4DF22" stop-opacity="0"/>
</linearGradient>
<linearGradient id="paint3_linear" x1="70.1266" y1="49.8181" x2="70.1266" y2="62.3181" gradientUnits="userSpaceOnUse">
<stop stop-color="white"/>
<stop offset="1" stop-color="white" stop-opacity="0"/>
</linearGradient>
<linearGradient id="paint4_linear" x1="54.726" y1="48.1434" x2="54.726" y2="60.6434" gradientUnits="userSpaceOnUse">
<stop stop-color="#ECD613" stop-opacity="0.28"/>
<stop offset="1" stop-color="#F4DF22" stop-opacity="0"/>
</linearGradient>
<linearGradient id="paint5_linear" x1="74.7019" y1="66.8934" x2="74.7019" y2="79.3934" gradientUnits="userSpaceOnUse">
<stop stop-color="white"/>
<stop offset="1" stop-color="white" stop-opacity="0"/>
</linearGradient>
<clipPath id="clip0">
<rect width="100" height="100" fill="white"/>
</clipPath>
</defs>
</svg>
